<?xml version="1.0" encoding="UTF-8"?>
<svg id="Layer_2" data-name="Layer 2" xmlns="http://www.w3.org/2000/svg" viewBox="0 0 945 308">
  <defs>
    <style>
      .cls-1 {
        fill: none;
      }

      .cls-2 {
        fill: #0000cd;
      }

      .cls-3 {
        fill: #ec008c;
      }
    </style>
  </defs>
  <g id="Layer_1-2" data-name="Layer 1">
    <g>
      <rect class="cls-1" width="945" height="308"/>
      <g>
        <path class="cls-2" d="M79.78,72.07v44.93h-7.85v-44.93h7.85Z"/>
        <path class="cls-2" d="M110.86,92.51v6.79h-23.76v-6.79h23.76Z"/>
        <path class="cls-2" d="M148.86,72.07v7.85h-13.11v37.07h-7.92v-37.07h-13.11v-7.85h34.14Z"/>
        <path class="cls-2" d="M164.11,72.07v18.3h22.96v-18.3h7.92v44.93h-7.92v-18.77h-22.96v18.77h-7.85v-44.93h7.85Z"/>
        <path class="cls-2" d="M230.07,72.07c10.12,0,14.44,6.26,14.44,13.44,0,5.59-2.66,11.58-9.52,13.51l10.45,17.97h-8.72l-10.25-17.37h-11.71c-.73,0-1.13.33-1.13,1.13v16.24h-7.85v-17.77c0-5.06,2.13-7.12,7.06-7.12h17.51c4.46,0,6.26-3.06,6.26-6.26s-1.93-5.92-6.26-5.92h-24.63v-7.85h24.36Z"/>
        <path class="cls-2" d="M289.24,72.07v7.85h-22.5c-4.73,0-6.79,2.2-6.79,5.66,0,3.66,2.33,5.32,6.86,5.32h22.1v7.12h-22.3c-4.53,0-6.86,1.8-6.86,5.46s2.2,5.66,6.79,5.66h22.76v7.85h-22.76c-10.65,0-14.98-5.26-14.98-12.25,0-5.13,2.33-8.59,6.46-10.32-4.19-1.73-6.32-5.19-6.32-10.12,0-7.19,4.46-12.25,15.04-12.25h22.5Z"/>
        <path class="cls-2" d="M303.95,117h-8.65l15.77-39.93c1.66-4.19,4.73-5.79,9.45-5.79s7.72,1.6,9.32,5.79l15.18,39.93h-8.72l-13.64-36.14c-.4-1.06-1.13-1.53-2.2-1.53s-1.8.47-2.26,1.53l-14.24,36.14Z"/>
        <path class="cls-2" d="M371.24,72.07c13.11,0,20.23,7.32,20.23,22.5s-7.06,22.43-20.23,22.43h-15.84c-2.53,0-3.73-1.2-3.73-3.66v-37.61c0-2.46,1.2-3.66,3.73-3.66h15.84ZM359.52,108.35c0,.6.27.8.87.8h10.85c8.72,0,12.38-4.33,12.38-14.64s-3.66-14.58-12.38-14.58h-10.85c-.6,0-.87.2-.87.8v27.62Z"/>
        <path class="cls-3" d="M425.88,72.07v29.35c0,4.33,2.13,7.72,9.19,7.72h17.44v7.85h-17.9c-11.91,0-16.57-6.52-16.57-15.51v-29.42h7.85Z"/>
        <path class="cls-3" d="M481.99,81.86c8.79,0,12.25,4.92,12.25,11.58v16.51c0,5.06-1.33,7.05-7.25,7.05h-16.44c-8.32,0-11.78-4.06-11.78-10.72s3.19-10.12,11.85-10.12h16.71v-2.66c0-2.73-1.53-4.86-5.39-4.86h-21.03v-6.79h21.1ZM487.32,108.35v-6.59h-16.57c-3.73,0-5.06,1.53-5.06,4.13s1.4,4.26,4.93,4.26h14.78c1.4,0,1.93-.53,1.93-1.8Z"/>
        <path class="cls-3" d="M511.28,66.62v15.24h15.57c9.32,0,15.18,5.72,15.18,17.57s-5.86,17.57-15.18,17.57h-9.72c-8.45,0-12.91-4.92-12.91-15.04v-35.34h7.06ZM511.28,88.65v12.98c0,5.99,2.2,8.52,7.92,8.52h6.92c6.12,0,8.79-3.13,8.79-10.72s-2.66-10.78-8.79-10.78h-14.84Z"/>
      </g>
      <g>
        <path class="cls-2" d="M75.91,182.75h-4.35v-31.53h4.35v31.53Z"/>
        <path class="cls-2" d="M103.05,165.46v17.3h-4.21v-16.7c0-3.62-1.46-4.67-3.8-4.67-2.7,0-4.53,1.69-6.13,4.26v17.11h-4.21v-24.12h3.62l.37,3.57c1.65-2.47,4.21-4.12,7.37-4.12,4.44,0,7,2.79,7,7.37Z"/>
        <path class="cls-2" d="M123.5,181.65c-1.6,1.1-3.34,1.65-5.4,1.65-4.07,0-6.5-2.38-6.5-6.86v-14.55h-4.21v-3.25h4.21v-5.45l4.21-.5v5.95h5.72l-.46,3.25h-5.26v14.37c0,2.43.78,3.57,2.88,3.57,1.05,0,2.01-.32,3.2-.96l1.6,2.79Z"/>
        <path class="cls-2" d="M145.29,172.14h-15.38c.41,5.58,3.02,7.73,6.5,7.73,2.38,0,4.16-.64,6.27-2.11l1.83,2.52c-2.38,1.88-5.08,3.02-8.42,3.02-6.73,0-10.66-4.71-10.66-12.36s3.8-12.86,10.02-12.86,9.93,4.53,9.93,11.9c0,.82-.05,1.6-.09,2.15ZM141.21,168.75c0-4.71-1.88-7.32-5.67-7.32-3.2,0-5.31,2.24-5.63,7.6h11.3v-.27Z"/>
        <path class="cls-2" d="M151.65,177.99v-29.06l4.21-.5v29.47c0,1.28.41,1.92,1.51,1.92.59,0,1.1-.09,1.56-.27l1.1,2.93c-.92.5-2.1.82-3.34.82-3.07,0-5.03-1.88-5.03-5.31Z"/>
        <path class="cls-2" d="M165.1,177.99v-29.06l4.21-.5v29.47c0,1.28.41,1.92,1.51,1.92.59,0,1.1-.09,1.56-.27l1.1,2.93c-.92.5-2.1.82-3.34.82-3.07,0-5.03-1.88-5.03-5.31Z"/>
        <path class="cls-2" d="M183.86,149.94c0,1.6-1.19,2.84-2.97,2.84s-2.93-1.24-2.93-2.84,1.19-2.88,2.93-2.88,2.97,1.24,2.97,2.88ZM183.04,182.75h-4.21v-24.12h4.21v24.12Z"/>
        <path class="cls-2" d="M211.04,159.73c-2.01.64-4.3.73-7.05.73,2.84,1.28,4.26,3.29,4.26,6.09,0,4.76-3.43,8.19-9.2,8.19-1.1,0-2.06-.14-3.07-.46-.69.5-1.19,1.37-1.19,2.24,0,1.1.69,1.97,3.16,1.97h3.84c4.94,0,8.24,2.84,8.24,6.68,0,4.67-3.84,7.32-11.3,7.32-7.87,0-10.34-2.42-10.34-7.32h3.8c0,2.75,1.24,4.03,6.54,4.03s7.05-1.33,7.05-3.75c0-2.29-1.83-3.43-4.85-3.43h-3.8c-4.3,0-6.22-2.15-6.22-4.58,0-1.56.92-3.11,2.65-4.26-2.79-1.46-4.07-3.57-4.07-6.68,0-4.94,3.98-8.42,9.29-8.42,5.99.14,8.19-.87,11.03-2.15l1.24,3.8ZM193.79,166.51c0,3.2,1.78,5.45,5.08,5.45s5.08-2.01,5.08-5.49-1.74-5.35-5.17-5.35c-3.25,0-4.99,2.24-4.99,5.4Z"/>
        <path class="cls-2" d="M233.51,172.14h-15.38c.41,5.58,3.02,7.73,6.5,7.73,2.38,0,4.16-.64,6.27-2.11l1.83,2.52c-2.38,1.88-5.08,3.02-8.42,3.02-6.73,0-10.66-4.71-10.66-12.36s3.8-12.86,10.02-12.86,9.93,4.53,9.93,11.9c0,.82-.05,1.6-.09,2.15ZM229.44,168.75c0-4.71-1.88-7.32-5.67-7.32-3.2,0-5.31,2.24-5.63,7.6h11.3v-.27Z"/>
        <path class="cls-2" d="M258.49,165.46v17.3h-4.21v-16.7c0-3.62-1.46-4.67-3.8-4.67-2.7,0-4.53,1.69-6.13,4.26v17.11h-4.21v-24.12h3.62l.37,3.57c1.65-2.47,4.21-4.12,7.37-4.12,4.44,0,7,2.79,7,7.37Z"/>
        <path class="cls-2" d="M278.95,181.65c-1.6,1.1-3.34,1.65-5.4,1.65-4.07,0-6.5-2.38-6.5-6.86v-14.55h-4.21v-3.25h4.21v-5.45l4.21-.5v5.95h5.72l-.46,3.25h-5.26v14.37c0,2.43.78,3.57,2.88,3.57,1.05,0,2.01-.32,3.2-.96l1.6,2.79Z"/>
        <path class="cls-2" d="M313.82,154.93h-8.74v27.82h-4.35v-27.82h-8.97v-3.71h22.51l-.46,3.71Z"/>
        <path class="cls-2" d="M334.68,172.14h-15.38c.41,5.58,3.02,7.73,6.5,7.73,2.38,0,4.16-.64,6.27-2.11l1.83,2.52c-2.38,1.88-5.08,3.02-8.42,3.02-6.73,0-10.66-4.71-10.66-12.36s3.8-12.86,10.02-12.86,9.93,4.53,9.93,11.9c0,.82-.05,1.6-.09,2.15ZM330.61,168.75c0-4.71-1.88-7.32-5.67-7.32-3.2,0-5.31,2.24-5.63,7.6h11.3v-.27Z"/>
        <path class="cls-2" d="M358.85,182.75h-5.08l-5.9-10.21-6,10.21h-4.76l8.42-12.72-7.46-11.39h4.94l5.03,8.83,5.08-8.83h4.76l-7.41,11.21,8.37,12.9Z"/>
        <path class="cls-2" d="M375.59,181.65c-1.6,1.1-3.34,1.65-5.4,1.65-4.07,0-6.5-2.38-6.5-6.86v-14.55h-4.21v-3.25h4.21v-5.45l4.21-.5v5.95h5.72l-.46,3.25h-5.26v14.37c0,2.43.78,3.57,2.88,3.57,1.05,0,2.01-.32,3.2-.96l1.6,2.79Z"/>
        <path class="cls-2" d="M384.84,149.94c0,1.6-1.19,2.84-2.97,2.84s-2.93-1.24-2.93-2.84,1.19-2.88,2.93-2.88,2.97,1.24,2.97,2.88ZM384.01,182.75h-4.21v-24.12h4.21v24.12Z"/>
        <path class="cls-2" d="M392.16,177.99v-29.06l4.21-.5v29.47c0,1.28.41,1.92,1.51,1.92.59,0,1.1-.09,1.56-.27l1.1,2.93c-.92.5-2.1.82-3.34.82-3.07,0-5.03-1.88-5.03-5.31Z"/>
        <path class="cls-2" d="M423.91,172.14h-15.38c.41,5.58,3.02,7.73,6.5,7.73,2.38,0,4.16-.64,6.27-2.11l1.83,2.52c-2.38,1.88-5.08,3.02-8.42,3.02-6.73,0-10.66-4.71-10.66-12.36s3.8-12.86,10.02-12.86,9.93,4.53,9.93,11.9c0,.82-.05,1.6-.09,2.15ZM419.84,168.75c0-4.71-1.88-7.32-5.67-7.32-3.2,0-5.31,2.24-5.63,7.6h11.3v-.27Z"/>
        <path class="cls-2" d="M445.42,160.83l-1.78,2.65c-2.15-1.37-4.03-2.06-6.27-2.06-2.75,0-4.44,1.24-4.44,3.16s1.28,2.88,5.17,3.89c5.08,1.28,8.01,3.29,8.01,7.5,0,5.03-4.62,7.32-9.52,7.32-4.07,0-7-1.33-9.11-3.16l2.24-2.56c1.92,1.46,4.16,2.33,6.77,2.33,3.16,0,5.17-1.37,5.17-3.66s-1.19-3.29-5.86-4.53c-5.22-1.37-7.28-3.62-7.28-7,0-3.84,3.71-6.63,8.69-6.63,3.39,0,5.9,1.01,8.19,2.75Z"/>
        <path class="cls-2" d="M468.81,155.3v3.34h5.86l-.46,3.25h-5.4v20.87h-4.21v-20.87h-4.3v-3.25h4.3v-3.29c0-4.03,2.65-6.91,7.55-6.91,2.29,0,3.84.41,5.77,1.24l-1.33,3.07c-1.56-.69-2.97-.92-4.21-.92-2.65,0-3.57,1.14-3.57,3.48Z"/>
        <path class="cls-2" d="M498.82,170.67c0,7.46-3.94,12.63-10.75,12.63s-10.75-4.94-10.75-12.58,3.94-12.63,10.8-12.63,10.71,4.94,10.71,12.58ZM481.85,170.72c0,6.27,2.2,9.2,6.22,9.2s6.22-2.93,6.22-9.24-2.2-9.2-6.18-9.2-6.27,2.93-6.27,9.24Z"/>
        <path class="cls-2" d="M518.5,158.36l-.78,4.12c-.73-.18-1.24-.27-2.1-.27-3.02,0-4.76,2.15-5.77,6.77v13.77h-4.21v-24.12h3.62l.41,4.9c1.28-3.62,3.52-5.45,6.45-5.45.78,0,1.65.09,2.38.27Z"/>
        <path class="cls-2" d="M553.28,167.97h-13.27v14.78h-4.35v-31.53h4.35v13.18h13.27v-13.18h4.35v31.53h-4.35v-14.78Z"/>
        <path class="cls-2" d="M584.67,172.14h-15.38c.41,5.58,3.02,7.73,6.5,7.73,2.38,0,4.16-.64,6.27-2.11l1.83,2.52c-2.38,1.88-5.08,3.02-8.42,3.02-6.73,0-10.66-4.71-10.66-12.36s3.8-12.86,10.02-12.86,9.93,4.53,9.93,11.9c0,.82-.05,1.6-.09,2.15ZM580.6,168.75c0-4.71-1.88-7.32-5.67-7.32-3.2,0-5.31,2.24-5.63,7.6h11.3v-.27Z"/>
        <path class="cls-2" d="M609.24,180.37l-.96,2.93c-2.42-.27-3.98-1.24-4.71-3.62-1.69,2.52-4.26,3.62-7.18,3.62-4.8,0-7.69-2.97-7.69-7.28,0-5.17,3.89-7.96,10.62-7.96h3.71v-1.78c0-3.48-1.69-4.76-5.03-4.76-1.79,0-4.03.46-6.5,1.28l-1.05-3.07c2.97-1.1,5.63-1.65,8.33-1.65,5.81,0,8.47,2.97,8.47,8.01v11.03c0,2.11.78,2.79,2.01,3.25ZM603.02,176.39v-5.54h-3.16c-4.44,0-6.68,1.65-6.68,4.94,0,2.84,1.42,4.35,4.16,4.35,2.47,0,4.3-1.24,5.67-3.75Z"/>
        <path class="cls-2" d="M615.24,177.99v-29.06l4.21-.5v29.47c0,1.28.41,1.92,1.51,1.92.59,0,1.1-.09,1.56-.27l1.1,2.93c-.92.5-2.1.82-3.34.82-3.07,0-5.03-1.88-5.03-5.31Z"/>
        <path class="cls-2" d="M641.27,181.65c-1.6,1.1-3.34,1.65-5.4,1.65-4.07,0-6.5-2.38-6.5-6.86v-14.55h-4.21v-3.25h4.21v-5.45l4.21-.5v5.95h5.72l-.46,3.25h-5.26v14.37c0,2.43.78,3.57,2.88,3.57,1.05,0,2.01-.32,3.2-.96l1.6,2.79Z"/>
        <path class="cls-2" d="M663.83,165.46v17.3h-4.21v-16.7c0-3.62-1.56-4.67-3.84-4.67-2.61,0-4.48,1.69-6.09,4.21v17.16h-4.21v-33.77l4.21-.46v13.45c1.74-2.38,4.12-3.89,7.14-3.89,4.39,0,7,2.84,7,7.37Z"/>
        <path class="cls-2" d="M693.71,169.39h-4.9v13.36h-4.35v-31.53h8.28c7.87,0,11.99,3.02,11.99,8.92,0,4.44-2.29,7.09-6.82,8.47l8.51,14.14h-5.17l-7.55-13.36ZM693.21,166.05c4.39,0,6.91-1.65,6.91-5.9,0-3.94-2.24-5.54-7.41-5.54h-3.89v11.44h4.39Z"/>
        <path class="cls-2" d="M729.82,172.14h-15.38c.41,5.58,3.02,7.73,6.5,7.73,2.38,0,4.16-.64,6.27-2.11l1.83,2.52c-2.38,1.88-5.08,3.02-8.42,3.02-6.73,0-10.66-4.71-10.66-12.36s3.8-12.86,10.02-12.86,9.93,4.53,9.93,11.9c0,.82-.05,1.6-.09,2.15ZM725.75,168.75c0-4.71-1.88-7.32-5.67-7.32-3.2,0-5.31,2.24-5.63,7.6h11.3v-.27Z"/>
        <path class="cls-2" d="M751.33,160.83l-1.78,2.65c-2.15-1.37-4.03-2.06-6.27-2.06-2.75,0-4.44,1.24-4.44,3.16s1.28,2.88,5.17,3.89c5.08,1.28,8.01,3.29,8.01,7.5,0,5.03-4.62,7.32-9.52,7.32-4.07,0-7-1.33-9.11-3.16l2.24-2.56c1.92,1.46,4.16,2.33,6.77,2.33,3.16,0,5.17-1.37,5.17-3.66s-1.19-3.29-5.86-4.53c-5.22-1.37-7.28-3.62-7.28-7,0-3.84,3.71-6.63,8.7-6.63,3.39,0,5.9,1.01,8.19,2.75Z"/>
        <path class="cls-2" d="M776.08,172.14h-15.38c.41,5.58,3.02,7.73,6.5,7.73,2.38,0,4.16-.64,6.27-2.11l1.83,2.52c-2.38,1.88-5.08,3.02-8.42,3.02-6.73,0-10.66-4.71-10.66-12.36s3.8-12.86,10.02-12.86,9.93,4.53,9.93,11.9c0,.82-.05,1.6-.09,2.15ZM772.01,168.75c0-4.71-1.88-7.32-5.67-7.32-3.2,0-5.31,2.24-5.63,7.6h11.3v-.27Z"/>
        <path class="cls-2" d="M800.66,180.37l-.96,2.93c-2.42-.27-3.98-1.24-4.71-3.62-1.69,2.52-4.26,3.62-7.18,3.62-4.8,0-7.69-2.97-7.69-7.28,0-5.17,3.89-7.96,10.62-7.96h3.71v-1.78c0-3.48-1.69-4.76-5.03-4.76-1.79,0-4.03.46-6.5,1.28l-1.05-3.07c2.97-1.1,5.63-1.65,8.33-1.65,5.81,0,8.47,2.97,8.47,8.01v11.03c0,2.11.78,2.79,2.01,3.25ZM794.43,176.39v-5.54h-3.16c-4.44,0-6.68,1.65-6.68,4.94,0,2.84,1.42,4.35,4.16,4.35,2.47,0,4.3-1.24,5.67-3.75Z"/>
        <path class="cls-2" d="M820.01,158.36l-.78,4.12c-.73-.18-1.24-.27-2.11-.27-3.02,0-4.76,2.15-5.77,6.77v13.77h-4.21v-24.12h3.62l.41,4.9c1.28-3.62,3.52-5.45,6.45-5.45.78,0,1.65.09,2.38.27Z"/>
        <path class="cls-2" d="M840.05,160.7l-2.01,2.65c-1.65-1.19-3.16-1.78-5.17-1.78-3.8,0-6.18,2.97-6.18,9.24s2.38,8.92,6.18,8.92c2.01,0,3.43-.64,5.26-1.83l1.92,2.75c-2.15,1.74-4.58,2.65-7.37,2.65-6.5,0-10.53-4.62-10.53-12.4s3.98-12.81,10.53-12.81c2.84,0,5.12.73,7.37,2.61Z"/>
        <path class="cls-2" d="M863.99,165.46v17.3h-4.21v-16.7c0-3.62-1.56-4.67-3.84-4.67-2.61,0-4.48,1.69-6.09,4.21v17.16h-4.21v-33.77l4.21-.46v13.45c1.74-2.38,4.12-3.89,7.14-3.89,4.39,0,7,2.84,7,7.37Z"/>
        <path class="cls-2" d="M876.57,180.1c0,1.01-.23,1.92-.82,3.25l-3.07,7h-3.02l1.83-7.6c-.78-.59-1.28-1.56-1.28-2.65,0-1.74,1.37-3.16,3.16-3.16s3.2,1.42,3.2,3.16Z"/>
        <path class="cls-2" d="M88.13,208.78h-12.22v10.3h10.62v3.48h-10.62v10.8h13.09v3.48h-17.44v-31.53h17.07l-.5,3.48Z"/>
        <path class="cls-2" d="M113.58,219.54v17.3h-4.21v-16.7c0-3.62-1.46-4.67-3.8-4.67-2.7,0-4.53,1.69-6.13,4.26v17.11h-4.21v-24.12h3.62l.37,3.57c1.65-2.47,4.21-4.12,7.37-4.12,4.44,0,7,2.79,7,7.37Z"/>
        <path class="cls-2" d="M141.31,213.82c-2.01.64-4.3.73-7.05.73,2.84,1.28,4.26,3.29,4.26,6.09,0,4.76-3.43,8.19-9.2,8.19-1.1,0-2.06-.14-3.07-.46-.69.5-1.19,1.37-1.19,2.24,0,1.1.69,1.97,3.16,1.97h3.84c4.94,0,8.24,2.84,8.24,6.68,0,4.67-3.84,7.32-11.3,7.32-7.87,0-10.34-2.42-10.34-7.32h3.8c0,2.75,1.24,4.03,6.54,4.03s7.05-1.33,7.05-3.75c0-2.29-1.83-3.43-4.85-3.43h-3.8c-4.3,0-6.22-2.15-6.22-4.58,0-1.56.92-3.11,2.65-4.26-2.79-1.46-4.07-3.57-4.07-6.68,0-4.94,3.98-8.42,9.29-8.42,5.99.14,8.19-.87,11.03-2.15l1.24,3.8ZM124.05,220.59c0,3.2,1.78,5.45,5.08,5.45s5.08-2.01,5.08-5.49-1.74-5.35-5.17-5.35c-3.25,0-4.99,2.24-4.99,5.4Z"/>
        <path class="cls-2" d="M150.55,204.02c0,1.6-1.19,2.84-2.97,2.84s-2.93-1.24-2.93-2.84,1.19-2.88,2.93-2.88,2.97,1.24,2.97,2.88ZM149.72,236.83h-4.21v-24.12h4.21v24.12Z"/>
        <path class="cls-2" d="M176.49,219.54v17.3h-4.21v-16.7c0-3.62-1.46-4.67-3.8-4.67-2.7,0-4.53,1.69-6.13,4.26v17.11h-4.21v-24.12h3.62l.37,3.57c1.65-2.47,4.21-4.12,7.37-4.12,4.44,0,7,2.79,7,7.37Z"/>
        <path class="cls-2" d="M202.9,226.22h-15.38c.41,5.58,3.02,7.73,6.5,7.73,2.38,0,4.16-.64,6.27-2.11l1.83,2.52c-2.38,1.88-5.08,3.02-8.42,3.02-6.73,0-10.66-4.71-10.66-12.36s3.8-12.86,10.02-12.86,9.93,4.53,9.93,11.9c0,.82-.05,1.6-.09,2.15ZM198.82,222.83c0-4.71-1.88-7.32-5.67-7.32-3.2,0-5.31,2.24-5.63,7.6h11.3v-.27Z"/>
        <path class="cls-2" d="M227.79,226.22h-15.38c.41,5.58,3.02,7.73,6.5,7.73,2.38,0,4.16-.64,6.27-2.11l1.83,2.52c-2.38,1.88-5.08,3.02-8.42,3.02-6.73,0-10.66-4.71-10.66-12.36s3.8-12.86,10.02-12.86,9.93,4.53,9.93,11.9c0,.82-.05,1.6-.09,2.15ZM223.72,222.83c0-4.71-1.88-7.32-5.67-7.32-3.2,0-5.31,2.24-5.63,7.6h11.3v-.27Z"/>
        <path class="cls-2" d="M247.28,212.44l-.78,4.12c-.73-.18-1.24-.27-2.1-.27-3.02,0-4.76,2.15-5.77,6.77v13.77h-4.21v-24.12h3.62l.41,4.9c1.28-3.62,3.52-5.45,6.45-5.45.78,0,1.65.09,2.38.27Z"/>
        <path class="cls-2" d="M256.98,204.02c0,1.6-1.19,2.84-2.97,2.84s-2.93-1.24-2.93-2.84,1.19-2.88,2.93-2.88,2.97,1.24,2.97,2.88ZM256.16,236.83h-4.21v-24.12h4.21v24.12Z"/>
        <path class="cls-2" d="M282.93,219.54v17.3h-4.21v-16.7c0-3.62-1.46-4.67-3.8-4.67-2.7,0-4.53,1.69-6.13,4.26v17.11h-4.21v-24.12h3.62l.37,3.57c1.65-2.47,4.21-4.12,7.37-4.12,4.44,0,7,2.79,7,7.37Z"/>
        <path class="cls-2" d="M310.66,213.82c-2.01.64-4.3.73-7.05.73,2.84,1.28,4.26,3.29,4.26,6.09,0,4.76-3.43,8.19-9.2,8.19-1.1,0-2.06-.14-3.07-.46-.69.5-1.19,1.37-1.19,2.24,0,1.1.69,1.97,3.16,1.97h3.84c4.94,0,8.24,2.84,8.24,6.68,0,4.67-3.84,7.32-11.3,7.32-7.87,0-10.34-2.42-10.34-7.32h3.8c0,2.75,1.24,4.03,6.54,4.03s7.05-1.33,7.05-3.75c0-2.29-1.83-3.43-4.85-3.43h-3.8c-4.3,0-6.22-2.15-6.22-4.58,0-1.56.92-3.11,2.65-4.26-2.79-1.46-4.07-3.57-4.07-6.68,0-4.94,3.98-8.42,9.29-8.42,5.99.14,8.19-.87,11.03-2.15l1.24,3.8ZM293.41,220.59c0,3.2,1.78,5.45,5.08,5.45s5.08-2.01,5.08-5.49-1.74-5.35-5.17-5.35c-3.25,0-4.99,2.24-4.99,5.4Z"/>
        <path class="cls-2" d="M320.68,234.18c0,1.01-.23,1.92-.82,3.25l-3.07,7h-3.02l1.83-7.6c-.78-.59-1.28-1.56-1.28-2.65,0-1.74,1.37-3.16,3.16-3.16s3.2,1.42,3.2,3.16Z"/>
        <path class="cls-2" d="M354.13,228.92h-11.94l-2.38,7.92h-4.39l10.11-31.53h5.49l10.07,31.53h-4.58l-2.38-7.92ZM353.08,225.39l-4.9-16.47-4.94,16.47h9.84Z"/>
        <path class="cls-2" d="M383.46,236.83h-3.62l-.32-3.75c-1.83,2.93-4.07,4.3-7.5,4.3-4.21,0-6.73-2.65-6.73-7.37v-17.3h4.21v16.84c0,3.29,1.1,4.53,3.71,4.53s4.58-1.74,6.04-4.16v-17.21h4.21v24.12Z"/>
        <path class="cls-2" d="M411.47,213.82c-2.01.64-4.3.73-7.05.73,2.84,1.28,4.26,3.29,4.26,6.09,0,4.76-3.43,8.19-9.2,8.19-1.1,0-2.06-.14-3.07-.46-.69.5-1.19,1.37-1.19,2.24,0,1.1.69,1.97,3.16,1.97h3.84c4.94,0,8.24,2.84,8.24,6.68,0,4.67-3.84,7.32-11.3,7.32-7.87,0-10.34-2.42-10.34-7.32h3.8c0,2.75,1.24,4.03,6.54,4.03s7.05-1.33,7.05-3.75c0-2.29-1.83-3.43-4.85-3.43h-3.8c-4.3,0-6.22-2.15-6.22-4.58,0-1.56.92-3.11,2.65-4.26-2.79-1.46-4.07-3.57-4.07-6.68,0-4.94,3.98-8.42,9.29-8.42,5.99.14,8.19-.87,11.03-2.15l1.24,3.8ZM394.22,220.59c0,3.2,1.78,5.45,5.08,5.45s5.08-2.01,5.08-5.49-1.74-5.35-5.17-5.35c-3.25,0-4.99,2.24-4.99,5.4Z"/>
        <path class="cls-2" d="M446.43,219.54v17.3h-4.21v-16.7c0-3.62-1.56-4.67-3.39-4.67-2.61,0-4.03,1.69-5.67,4.26v17.11h-4.21v-16.7c0-3.62-1.56-4.67-3.39-4.67-2.61,0-4.07,1.69-5.67,4.26v17.11h-4.21v-24.12h3.62l.37,3.52c1.6-2.42,3.8-4.07,6.96-4.07,2.97,0,5.17,1.6,6.09,4.35,1.74-2.61,3.94-4.35,7.18-4.35,3.94,0,6.54,2.84,6.54,7.37Z"/>
        <path class="cls-2" d="M472.83,226.22h-15.38c.41,5.58,3.02,7.73,6.5,7.73,2.38,0,4.16-.64,6.27-2.11l1.83,2.52c-2.38,1.88-5.08,3.02-8.42,3.02-6.73,0-10.66-4.71-10.66-12.36s3.8-12.86,10.02-12.86,9.93,4.53,9.93,11.9c0,.82-.05,1.6-.09,2.15ZM468.76,222.83c0-4.71-1.88-7.32-5.67-7.32-3.2,0-5.31,2.24-5.63,7.6h11.3v-.27Z"/>
        <path class="cls-2" d="M497.82,219.54v17.3h-4.21v-16.7c0-3.62-1.46-4.67-3.8-4.67-2.7,0-4.53,1.69-6.13,4.26v17.11h-4.21v-24.12h3.62l.37,3.57c1.65-2.47,4.21-4.12,7.37-4.12,4.44,0,7,2.79,7,7.37Z"/>
        <path class="cls-2" d="M518.27,235.73c-1.6,1.1-3.34,1.65-5.4,1.65-4.07,0-6.5-2.38-6.5-6.86v-14.55h-4.21v-3.25h4.21v-5.45l4.21-.5v5.95h5.72l-.46,3.25h-5.26v14.37c0,2.43.78,3.57,2.88,3.57,1.05,0,2.01-.32,3.2-.96l1.6,2.79Z"/>
        <path class="cls-2" d="M540.65,234.45l-.96,2.93c-2.42-.27-3.98-1.24-4.71-3.62-1.69,2.52-4.26,3.62-7.18,3.62-4.8,0-7.69-2.97-7.69-7.28,0-5.17,3.89-7.96,10.62-7.96h3.71v-1.78c0-3.48-1.69-4.76-5.03-4.76-1.79,0-4.03.46-6.5,1.28l-1.05-3.07c2.97-1.1,5.63-1.65,8.33-1.65,5.81,0,8.47,2.97,8.47,8.01v11.03c0,2.11.78,2.79,2.01,3.25ZM534.42,230.47v-5.54h-3.16c-4.44,0-6.68,1.65-6.68,4.94,0,2.84,1.42,4.35,4.16,4.35,2.47,0,4.3-1.24,5.67-3.75Z"/>
        <path class="cls-2" d="M559.45,235.73c-1.6,1.1-3.34,1.65-5.4,1.65-4.07,0-6.5-2.38-6.5-6.86v-14.55h-4.21v-3.25h4.21v-5.45l4.21-.5v5.95h5.72l-.46,3.25h-5.26v14.37c0,2.43.78,3.57,2.88,3.57,1.05,0,2.01-.32,3.2-.96l1.6,2.79Z"/>
        <path class="cls-2" d="M568.7,204.02c0,1.6-1.19,2.84-2.97,2.84s-2.93-1.24-2.93-2.84,1.19-2.88,2.93-2.88,2.97,1.24,2.97,2.88ZM567.87,236.83h-4.21v-24.12h4.21v24.12Z"/>
        <path class="cls-2" d="M596.2,224.75c0,7.46-3.94,12.63-10.75,12.63s-10.75-4.94-10.75-12.58,3.94-12.63,10.8-12.63,10.71,4.94,10.71,12.58ZM579.22,224.8c0,6.27,2.2,9.2,6.22,9.2s6.22-2.93,6.22-9.24-2.2-9.2-6.18-9.2-6.27,2.93-6.27,9.24Z"/>
        <path class="cls-2" d="M621.37,219.54v17.3h-4.21v-16.7c0-3.62-1.46-4.67-3.8-4.67-2.7,0-4.53,1.69-6.13,4.26v17.11h-4.21v-24.12h3.62l.37,3.57c1.65-2.47,4.21-4.12,7.37-4.12,4.44,0,7,2.79,7,7.37Z"/>
        <path class="cls-2" d="M633.95,234.18c0,1.01-.23,1.92-.82,3.25l-3.07,7h-3.02l1.83-7.6c-.78-.59-1.28-1.56-1.28-2.65,0-1.74,1.37-3.16,3.16-3.16s3.2,1.42,3.2,3.16Z"/>
        <path class="cls-2" d="M670.79,234.45l-.96,2.93c-2.42-.27-3.98-1.24-4.71-3.62-1.69,2.52-4.26,3.62-7.18,3.62-4.8,0-7.69-2.97-7.69-7.28,0-5.17,3.89-7.96,10.62-7.96h3.71v-1.78c0-3.48-1.69-4.76-5.03-4.76-1.79,0-4.03.46-6.5,1.28l-1.05-3.07c2.97-1.1,5.63-1.65,8.33-1.65,5.81,0,8.47,2.97,8.47,8.01v11.03c0,2.11.78,2.79,2.01,3.25ZM664.56,230.47v-5.54h-3.16c-4.44,0-6.68,1.65-6.68,4.94,0,2.84,1.42,4.35,4.16,4.35,2.47,0,4.3-1.24,5.67-3.75Z"/>
        <path class="cls-2" d="M695.63,219.54v17.3h-4.21v-16.7c0-3.62-1.46-4.67-3.8-4.67-2.7,0-4.53,1.69-6.13,4.26v17.11h-4.21v-24.12h3.62l.37,3.57c1.65-2.47,4.21-4.12,7.37-4.12,4.44,0,7,2.79,7,7.37Z"/>
        <path class="cls-2" d="M722.36,203.02v33.82h-3.71l-.41-3.34c-1.56,2.43-3.98,3.89-6.96,3.89-5.86,0-9.11-4.99-9.11-12.49s3.57-12.72,9.47-12.72c2.84,0,4.9,1.28,6.5,2.97v-12.63l4.21.5ZM718.15,230.47v-11.81c-1.51-1.92-3.2-3.16-5.58-3.16-3.62,0-5.86,3.02-5.86,9.29s2.01,9.24,5.49,9.24c2.7,0,4.35-1.33,5.95-3.57Z"/>
        <path class="cls-2" d="M765.65,220.91c0,12.86-8.01,15.92-14.83,15.92h-7.55v-31.53h6.59c8.05,0,15.79,2.52,15.79,15.6ZM747.62,208.78v24.62h3.52c4.94,0,9.88-2.11,9.88-12.49s-5.17-12.13-10.2-12.13h-3.2Z"/>
        <path class="cls-2" d="M790.63,226.22h-15.38c.41,5.58,3.02,7.73,6.5,7.73,2.38,0,4.16-.64,6.27-2.11l1.83,2.52c-2.38,1.88-5.08,3.02-8.42,3.02-6.73,0-10.66-4.71-10.66-12.36s3.8-12.86,10.02-12.86,9.93,4.53,9.93,11.9c0,.82-.05,1.6-.09,2.15ZM786.56,222.83c0-4.71-1.88-7.32-5.67-7.32-3.2,0-5.31,2.24-5.63,7.6h11.3v-.27Z"/>
        <path class="cls-2" d="M812.14,214.91l-1.78,2.65c-2.15-1.37-4.03-2.06-6.27-2.06-2.75,0-4.44,1.24-4.44,3.16s1.28,2.88,5.17,3.89c5.08,1.28,8.01,3.29,8.01,7.5,0,5.03-4.62,7.32-9.52,7.32-4.07,0-7-1.33-9.11-3.16l2.24-2.56c1.92,1.46,4.16,2.33,6.77,2.33,3.16,0,5.17-1.37,5.17-3.66s-1.19-3.29-5.86-4.53c-5.22-1.37-7.28-3.62-7.28-7,0-3.84,3.71-6.63,8.7-6.63,3.39,0,5.9,1.01,8.19,2.75Z"/>
        <path class="cls-2" d="M823.67,204.02c0,1.6-1.19,2.84-2.97,2.84s-2.93-1.24-2.93-2.84,1.19-2.88,2.93-2.88,2.97,1.24,2.97,2.88ZM822.85,236.83h-4.21v-24.12h4.21v24.12Z"/>
        <path class="cls-2" d="M850.85,213.82c-2.01.64-4.3.73-7.05.73,2.84,1.28,4.25,3.29,4.25,6.09,0,4.76-3.43,8.19-9.2,8.19-1.1,0-2.06-.14-3.07-.46-.69.5-1.19,1.37-1.19,2.24,0,1.1.69,1.97,3.16,1.97h3.84c4.94,0,8.24,2.84,8.24,6.68,0,4.67-3.84,7.32-11.3,7.32-7.87,0-10.34-2.42-10.34-7.32h3.8c0,2.75,1.24,4.03,6.54,4.03s7.05-1.33,7.05-3.75c0-2.29-1.83-3.43-4.85-3.43h-3.8c-4.3,0-6.22-2.15-6.22-4.58,0-1.56.92-3.11,2.65-4.26-2.79-1.46-4.07-3.57-4.07-6.68,0-4.94,3.98-8.42,9.29-8.42,5.99.14,8.19-.87,11.03-2.15l1.24,3.8ZM833.6,220.59c0,3.2,1.78,5.45,5.08,5.45s5.08-2.01,5.08-5.49-1.74-5.35-5.17-5.35c-3.25,0-4.99,2.24-4.99,5.4Z"/>
        <path class="cls-2" d="M873.41,219.54v17.3h-4.21v-16.7c0-3.62-1.46-4.67-3.8-4.67-2.7,0-4.53,1.69-6.13,4.26v17.11h-4.21v-24.12h3.62l.37,3.57c1.65-2.47,4.21-4.12,7.37-4.12,4.44,0,7,2.79,7,7.37Z"/>
      </g>
    </g>
  </g>
</svg>